<svg width="52" height="53" viewBox="0 0 52 53" fill="none" xmlns="http://www.w3.org/2000/svg">
<path d="M21.8314 24.4608L13.1346 38.1946C13.0263 38.3656 13.0789 38.5918 13.2517 38.698L16.9101 40.9456C17.0846 41.0528 17.3136 40.9959 17.4171 40.8196L21.5168 33.8323C21.6828 33.5494 22.1168 33.6264 22.2009 33.9432C24.5526 42.8075 28.8954 46.3524 33.3752 47.0699C42.4427 48.5222 50.1177 39.3206 51.6513 30.3037C55.0401 10.3785 33.0761 -7.71447 14.1494 3.38297C6.18785 8.05112 0.622055 16.5719 0.0485605 25.7544C-0.838477 39.9573 10.5949 48.8442 20.5881 51.4529L20.4174 52.6333C20.3932 52.8005 20.5548 52.9338 20.7144 52.8784L27.7974 50.4174C27.9579 50.3616 28.0013 50.1551 27.8769 50.0395L21.9475 44.5248C21.8144 44.401 21.597 44.4776 21.571 44.6575L21.447 45.5143C-5.37819 36.902 5.455 6.30801 24.8964 5.05323C44.3405 3.14428 53.8343 28.9605 41.967 39.0506C32.4732 47.1227 28.274 37.9901 27.3612 32.4147C35.8508 31.5057 45.9836 21.1429 36.3073 11.9618C30.1619 6.91454 21.0514 10.807 15.76 14.4045C15.6624 14.4708 15.5321 14.4504 15.458 14.3586L14.4136 13.0627C14.3006 12.9226 14.0771 12.9649 14.0231 13.1366L11.4401 21.3509C11.3873 21.5188 11.5387 21.6797 11.7095 21.6372L19.3753 19.7288C19.5351 19.6891 19.5997 19.4969 19.4964 19.3687L18.9652 18.7098C18.8824 18.607 18.9062 18.4545 19.0164 18.3818C24.0991 15.0294 29.0608 14.47 31.2865 15.2342C39.4335 19.0677 33.2687 26.1362 27.0865 27.5219C26.8868 27.5667 26.6945 27.4317 26.6609 27.2306L26.3956 25.6455C26.3721 25.5052 26.2687 25.3914 26.1308 25.3543L22.2357 24.3038C22.0809 24.262 21.9169 24.3257 21.8314 24.4608Z" fill="#131525"/>
</svg>
